<?xml version="1.0" standalone="no"?><!DOCTYPE svg PUBLIC "-//W3C//DTD SVG 1.1//EN" "http://www.w3.org/Graphics/SVG/1.1/DTD/svg11.dtd"><svg t="1735458465838" class="icon" viewBox="0 0 1024 1024" version="1.1" xmlns="http://www.w3.org/2000/svg" p-id="32179" xmlns:xlink="http://www.w3.org/1999/xlink" width="256" height="256"><path d="M895.49206344 240.25396812L556.86772531 43.85185156c-27.0899475-15.238095-60.95238094-15.238095-88.04232844 0l-338.62433906 196.40211656c-27.0899475 15.238095-44.02116375 45.71428594-44.02116375 76.19047594v391.11111188c0 32.16931219 16.93121719 60.95238094 44.02116375 76.19047593l338.62433907 196.40211657c13.54497375 8.46560813 28.78306875 11.85185156 44.02116374 11.85185156 15.238095 0 30.47619094-3.38624344 44.02116469-11.85185156l338.62433813-196.40211657c27.0899475-15.238095 44.02116375-45.71428594 44.02116375-76.19047593V316.44444406c0-32.16931219-16.93121719-60.95238094-44.02116375-76.19047593z" fill="#e6e6e6" p-id="32180"></path><path d="M880.25396844 705.86243375V318.13756625c0-11.85185156-6.77248688-22.01058187-16.93121719-28.78306875L528.08465562 96.33862437c-10.15873031-5.07936469-22.01058187-5.07936469-32.16931125 1e-8L160.67724875 289.3544975c-10.15873031 5.07936469-16.93121719 16.93121719-16.93121719 28.78306875v387.7248675c0 11.85185156 6.77248688 22.01058187 16.93121719 28.78306875l335.23809563 193.01587312c10.15873031 5.07936469 22.01058187 5.07936469 32.16931125 0l335.23809562-193.01587312c10.15873031-6.77248688 16.93121719-16.93121719 16.93121719-28.78306875z" fill="#2c2c2c" p-id="32181" data-spm-anchor-id="a313x.search_index.0.i1.1ce43a816pp2Du" class="selected"></path><path d="M323.21693094 556.86772531l27.0899475-77.88359812 27.08994656 77.88359812h-54.17989406z m82.96296281 86.34920625h64.33862437l-88.0423275-231.95767219h-66.03174656l-88.0423275 231.95767219h64.33862438l13.54497375-40.63492125h86.34920625l13.54497281 40.63492125zM556.86772531 458.66666656h20.31745969c22.01058187 0 33.86243344 10.15873031 33.86243437 28.78306875s-11.85185156 28.78306875-33.86243437 28.78306875H556.86772531v-57.5661375z m0 106.66666688h35.55555469c25.39682531 0 45.71428594-6.77248688 59.25925969-20.31746063 13.54497375-13.54497375 20.31746062-32.16931219 20.31746062-57.5661375s-6.77248688-44.02116375-20.31746062-57.5661375c-13.54497375-13.54497375-33.86243344-20.31746062-59.25925969-20.31746062h-96.50793563V641.52380937H556.86772531v-76.19047593z m148.99470844-154.07407406v231.95767218h60.95238094V411.25925937h-60.95238094z m0-1e-8" fill="#FFFFFF" p-id="32182"></path></svg>